<svg xmlns="http://www.w3.org/2000/svg" xmlns:xlink="http://www.w3.org/1999/xlink" viewBox="0 0 800 800"><defs><style>.cls-1{fill:none;}.cls-2{fill:#f6a100;}.cls-3{fill:#ed9a00;}.cls-4{clip-path:url(#clip-path);}.cls-5{fill:#d9a78c;}.cls-6{fill:#c0d0d8;}.cls-7{fill:#a7bdc8;}.cls-8{fill:#14a89a;}.cls-9{fill:#eac0a7;}.cls-10{fill:#f2d7bc;}.cls-11{fill:#fff;}.cls-12{fill:#7f97a3;}.cls-13{fill:#8b5f3c;}</style><clipPath id="clip-path"><circle class="cls-1" cx="400" cy="400" r="397.29" transform="translate(-165.69 400) rotate(-45)"/></clipPath></defs><title>person</title><g id="Objects"><g id="men_2" data-name="men 2"><path class="cls-2" d="M797.28,400C797.28,180.58,619.41,2.71,400,2.71S2.71,180.58,2.71,400,180.58,797.28,400,797.28,797.28,619.42,797.28,400Z"/><path class="cls-3" d="M797.28,400C797.28,180.58,619.41,2.71,400,2.71V797.28C619.41,797.28,797.28,619.42,797.28,400Z"/><g class="cls-4"><rect class="cls-5" x="341.83" y="500.2" width="116.35" height="127.58"/><path class="cls-6" d="M327.71,576.22s-110.62,16.17-127,33.19c-14.22,14.82-43.8,156.73-50.64,187.88H400V582.23Z"/><path class="cls-7" d="M472.28,576.22s110.63,16.17,127,33.19c14.23,14.82,43.81,156.73,50.65,187.88H400V582.23Z"/><polygon class="cls-8" points="392.49 603.3 377.77 754.82 400 796.73 422.23 754.82 407.51 603.3 392.49 603.3"/><path class="cls-8" d="M419.86,602,400,621.9,380.14,602,400,582.19Z"/><path class="cls-9" d="M400,135.15c56.49,0,145.82,32.11,145.82,182.59,0,86.89-28.32,143.81-40.66,159.56C493.8,491.78,430,522.65,400,522.65Z"/><path class="cls-9" d="M573.93,353.62c2.49-24-9-45.38-25.59-47.66s-32.12,15.36-34.61,39.41,9,45.38,25.59,47.65S571.43,377.66,573.93,353.62Z"/><path class="cls-10" d="M400,135.15c-56.49,0-145.82,32.11-145.82,182.59,0,86.89,28.32,143.81,40.66,159.56C306.2,491.78,370,522.65,400,522.65Z"/><path class="cls-10" d="M226.07,353.62c-2.49-24,9-45.38,25.59-47.66s32.11,15.36,34.61,39.41-9,45.38-25.59,47.65S228.56,377.66,226.07,353.62Z"/><polygon class="cls-11" points="400 582.23 340.93 558.48 326.38 573.26 355.77 638.43 400 582.23"/><polygon class="cls-11" points="400 582.23 459.06 558.48 473.62 573.26 444.22 638.43 400 582.23"/><rect class="cls-12" x="272.02" y="732.53" width="73.71" height="16.26"/><rect class="cls-12" x="454.32" y="732.53" width="73.71" height="16.26"/><path class="cls-13" d="M273.59,356.26h10.07s-6.12-39.19,11.84-51.84V279.11s-6.94-.82-6.94-30.62,35.51-51,111.44-51V106S249.91,122.21,249.91,231.14v74.91s11-1.94,18.78,4.63C277.13,317.76,273.59,356.26,273.59,356.26Z"/><path class="cls-13" d="M525,356.26H514.92s6.12-39.19-11.85-51.84V279.11s6.95-.82,6.95-30.62-35.52-51-111.44-51V106s150.08,16.19,150.08,125.12v74.91s-10.95-1.94-18.78,4.63C521.44,317.76,525,356.26,525,356.26Z"/><path class="cls-11" d="M400,457.84c26.33,0,47.68-8.7,47.68-19.42H352.32C352.32,449.14,373.67,457.84,400,457.84Z"/></g></g></g></svg>